# xmcd CD database file
#
# Track frame offsets:
#	150
#	16955
#	36028
#	52557
#
# Disc length: 915 seconds
#
# Revision: 11
# Processed by: cddbd v1.5.2PL0 Copyright (c) Steve Scherf et al.
# Submitted via: CDex 1.90
#
DISCID=1f039104
DTITLE=Deacon Blue - Chocolate Girl [CD Single)
DYEAR=1987
DGENRE=Pop
TTITLE0=Chocolate girl
TTITLE1=S.H.A.R.O.N.
TTITLE2=The very thing
TTITLE3=Love's great fears
EXTD=YEAR: 1987
EXTT0=
EXTT1=
EXTT2=
EXTT3=
PLAYORDER=
